<svg width="255" height="81" viewBox="0 0 255 81" fill="none" xmlns="http://www.w3.org/2000/svg">
<g filter="url(#filter0_dddd_71_3)">
<rect x="4" y="6" width="195" height="39.8158" rx="14.5395" fill="#C7E5B1"/>
<path d="M21.0881 32.4079L26.5105 20.4342H28.2039L33.6434 32.4079H31.8474L27.0066 21.3921H27.6908L22.85 32.4079H21.0881ZM23.3974 29.4145L23.8592 28.0461H30.5987L31.0947 29.4145H23.3974ZM40.6678 32.5447C39.7441 32.5447 38.8946 32.3965 38.1191 32.1C37.3437 31.7921 36.6709 31.3645 36.1007 30.8171C35.5305 30.2583 35.0858 29.6083 34.7665 28.8671C34.4472 28.1259 34.2875 27.3105 34.2875 26.4211C34.2875 25.5316 34.4472 24.7162 34.7665 23.975C35.0858 23.2338 35.5305 22.5895 36.1007 22.0421C36.6823 21.4833 37.3608 21.0557 38.1362 20.7592C38.9117 20.4513 39.7669 20.2974 40.702 20.2974C41.6485 20.2974 42.5152 20.4513 43.302 20.7592C44.0888 21.0671 44.756 21.529 45.3033 22.1447L44.2428 23.2053C43.7524 22.7263 43.2165 22.3785 42.6349 22.1618C42.0647 21.9338 41.4432 21.8197 40.7704 21.8197C40.0862 21.8197 39.4476 21.9338 38.8546 22.1618C38.2731 22.3899 37.7656 22.7092 37.3323 23.1197C36.9103 23.5303 36.5796 24.0206 36.3402 24.5908C36.1121 25.1496 35.9981 25.7597 35.9981 26.4211C35.9981 27.0711 36.1121 27.6811 36.3402 28.2513C36.5796 28.8101 36.9103 29.3004 37.3323 29.7224C37.7656 30.1329 38.2731 30.4522 38.8546 30.6803C39.4362 30.9083 40.0691 31.0224 40.7533 31.0224C41.3919 31.0224 42.002 30.9254 42.5836 30.7316C43.1766 30.5263 43.7239 30.1899 44.2257 29.7224L45.2007 31.0224C44.6077 31.5241 43.9121 31.9061 43.1138 32.1684C42.327 32.4193 41.5117 32.5447 40.6678 32.5447ZM43.5586 30.8V26.3526H45.2007V31.0224L43.5586 30.8ZM50.0323 25.6H56.1902V27.054H50.0323V25.6ZM50.1862 30.9197H57.1652V32.4079H48.4757V20.4342H56.9257V21.9224H50.1862V30.9197ZM59.9349 32.4079V20.4342H61.3375L69.2572 30.2697H68.5217V20.4342H70.2322V32.4079H68.8296L60.9099 22.5724H61.6454V32.4079H59.9349ZM73.8162 32.4079V20.4342H78.8622C80.1394 20.4342 81.2627 20.6851 82.232 21.1868C83.2127 21.6886 83.971 22.3899 84.507 23.2908C85.0543 24.1917 85.328 25.2351 85.328 26.4211C85.328 27.607 85.0543 28.6504 84.507 29.5513C83.971 30.4522 83.2127 31.1535 82.232 31.6553C81.2627 32.157 80.1394 32.4079 78.8622 32.4079H73.8162ZM75.5267 30.9197H78.7596C79.7517 30.9197 80.607 30.7316 81.3254 30.3553C82.0552 29.979 82.6197 29.4544 83.0188 28.7816C83.4179 28.0974 83.6175 27.3105 83.6175 26.4211C83.6175 25.5202 83.4179 24.7333 83.0188 24.0605C82.6197 23.3877 82.0552 22.8632 81.3254 22.4868C80.607 22.1105 79.7517 21.9224 78.7596 21.9224H75.5267V30.9197ZM85.9679 32.4079L91.3902 20.4342H93.0837L98.5231 32.4079H96.7271L91.8863 21.3921H92.5705L87.7297 32.4079H85.9679ZM88.2771 29.4145L88.7389 28.0461H95.4784L95.9745 29.4145H88.2771ZM100.309 32.4079V20.4342H104.979C106.028 20.4342 106.923 20.5996 107.665 20.9303C108.406 21.261 108.976 21.7399 109.375 22.3671C109.774 22.9943 109.974 23.7412 109.974 24.6079C109.974 25.4746 109.774 26.2215 109.375 26.8487C108.976 27.4645 108.406 27.9377 107.665 28.2684C106.923 28.5991 106.028 28.7645 104.979 28.7645H101.25L102.02 27.9776V32.4079H100.309ZM108.315 32.4079L105.27 28.0632H107.1L110.179 32.4079H108.315ZM102.02 28.1487L101.25 27.3105H104.928C106.022 27.3105 106.849 27.0768 107.408 26.6092C107.978 26.1303 108.263 25.4632 108.263 24.6079C108.263 23.7526 107.978 23.0912 107.408 22.6237C106.849 22.1561 106.022 21.9224 104.928 21.9224H101.25L102.02 21.0671V28.1487ZM115.518 32.4079L120.94 20.4342H122.634L128.073 32.4079H126.277L121.436 21.3921H122.121L117.28 32.4079H115.518ZM117.827 29.4145L118.289 28.0461H125.028L125.524 29.4145H117.827ZM135.098 32.5447C134.174 32.5447 133.324 32.3965 132.549 32.1C131.773 31.7921 131.101 31.3645 130.53 30.8171C129.96 30.2583 129.516 29.6083 129.196 28.8671C128.877 28.1259 128.717 27.3105 128.717 26.4211C128.717 25.5316 128.877 24.7162 129.196 23.975C129.516 23.2338 129.96 22.5895 130.53 22.0421C131.112 21.4833 131.791 21.0557 132.566 20.7592C133.341 20.4513 134.197 20.2974 135.132 20.2974C136.078 20.2974 136.945 20.4513 137.732 20.7592C138.519 21.0671 139.186 21.529 139.733 22.1447L138.673 23.2053C138.182 22.7263 137.646 22.3785 137.065 22.1618C136.494 21.9338 135.873 21.8197 135.2 21.8197C134.516 21.8197 133.877 21.9338 133.284 22.1618C132.703 22.3899 132.195 22.7092 131.762 23.1197C131.34 23.5303 131.009 24.0206 130.77 24.5908C130.542 25.1496 130.428 25.7597 130.428 26.4211C130.428 27.0711 130.542 27.6811 130.77 28.2513C131.009 28.8101 131.34 29.3004 131.762 29.7224C132.195 30.1329 132.703 30.4522 133.284 30.6803C133.866 30.9083 134.499 31.0224 135.183 31.0224C135.822 31.0224 136.432 30.9254 137.013 30.7316C137.606 30.5263 138.154 30.1899 138.655 29.7224L139.63 31.0224C139.037 31.5241 138.342 31.9061 137.544 32.1684C136.757 32.4193 135.941 32.5447 135.098 32.5447ZM137.988 30.8V26.3526H139.63V31.0224L137.988 30.8ZM148.311 32.5447C147.398 32.5447 146.549 32.3908 145.762 32.0829C144.987 31.775 144.314 31.3474 143.744 30.8C143.173 30.2412 142.729 29.5912 142.409 28.85C142.09 28.1088 141.93 27.2991 141.93 26.4211C141.93 25.543 142.09 24.7333 142.409 23.9921C142.729 23.2509 143.173 22.6066 143.744 22.0592C144.314 21.5004 144.987 21.0671 145.762 20.7592C146.537 20.4513 147.387 20.2974 148.311 20.2974C149.223 20.2974 150.061 20.4513 150.825 20.7592C151.601 21.0557 152.273 21.4833 152.844 22.0421C153.425 22.5895 153.87 23.2338 154.178 23.975C154.497 24.7162 154.657 25.5316 154.657 26.4211C154.657 27.3105 154.497 28.1259 154.178 28.8671C153.87 29.6083 153.425 30.2583 152.844 30.8171C152.273 31.3645 151.601 31.7921 150.825 32.1C150.061 32.3965 149.223 32.5447 148.311 32.5447ZM148.311 31.0224C148.972 31.0224 149.582 30.9083 150.141 30.6803C150.711 30.4522 151.201 30.1329 151.612 29.7224C152.034 29.3004 152.359 28.8101 152.587 28.2513C152.826 27.6925 152.946 27.0825 152.946 26.4211C152.946 25.7597 152.826 25.1496 152.587 24.5908C152.359 24.032 152.034 23.5474 151.612 23.1368C151.201 22.7149 150.711 22.3899 150.141 22.1618C149.582 21.9338 148.972 21.8197 148.311 21.8197C147.638 21.8197 147.016 21.9338 146.446 22.1618C145.887 22.3899 145.397 22.7149 144.975 23.1368C144.553 23.5474 144.223 24.032 143.983 24.5908C143.755 25.1496 143.641 25.7597 143.641 26.4211C143.641 27.0825 143.755 27.6925 143.983 28.2513C144.223 28.8101 144.553 29.3004 144.975 29.7224C145.397 30.1329 145.887 30.4522 146.446 30.6803C147.016 30.9083 147.638 31.0224 148.311 31.0224ZM157.271 32.4079V20.4342H161.941C162.99 20.4342 163.885 20.5996 164.626 20.9303C165.368 21.261 165.938 21.7399 166.337 22.3671C166.736 22.9943 166.936 23.7412 166.936 24.6079C166.936 25.4746 166.736 26.2215 166.337 26.8487C165.938 27.4645 165.368 27.9377 164.626 28.2684C163.885 28.5991 162.99 28.7645 161.941 28.7645H158.212L158.982 27.9776V32.4079H157.271ZM165.276 32.4079L162.232 28.0632H164.062L167.141 32.4079H165.276ZM158.982 28.1487L158.212 27.3105H161.89C162.984 27.3105 163.811 27.0768 164.37 26.6092C164.94 26.1303 165.225 25.4632 165.225 24.6079C165.225 23.7526 164.94 23.0912 164.37 22.6237C163.811 22.1561 162.984 21.9224 161.89 21.9224H158.212L158.982 21.0671V28.1487ZM167.886 32.4079L173.308 20.4342H175.002L180.441 32.4079H178.645L173.804 21.3921H174.489L169.648 32.4079H167.886ZM170.195 29.4145L170.657 28.0461H177.397L177.893 29.4145H170.195Z" fill="black"/>
</g>
<defs>
<filter id="filter0_dddd_71_3" x="0" y="0" width="255" height="80.8158" filterUnits="userSpaceOnUse" color-interpolation-filters="sRGB">
<feFlood flood-opacity="0" result="BackgroundImageFix"/>
<feColorMatrix in="SourceAlpha" type="matrix" values="0 0 0 0 0 0 0 0 0 0 0 0 0 0 0 0 0 0 127 0" result="hardAlpha"/>
<feOffset dx="2" dy="1"/>
<feGaussianBlur stdDeviation="3"/>
<feColorMatrix type="matrix" values="0 0 0 0 0 0 0 0 0 0 0 0 0 0 0 0 0 0 0.1 0"/>
<feBlend mode="normal" in2="BackgroundImageFix" result="effect1_dropShadow_71_3"/>
<feColorMatrix in="SourceAlpha" type="matrix" values="0 0 0 0 0 0 0 0 0 0 0 0 0 0 0 0 0 0 127 0" result="hardAlpha"/>
<feOffset dx="10" dy="5"/>
<feGaussianBlur stdDeviation="5.5"/>
<feColorMatrix type="matrix" values="0 0 0 0 0 0 0 0 0 0 0 0 0 0 0 0 0 0 0.09 0"/>
<feBlend mode="normal" in2="effect1_dropShadow_71_3" result="effect2_dropShadow_71_3"/>
<feColorMatrix in="SourceAlpha" type="matrix" values="0 0 0 0 0 0 0 0 0 0 0 0 0 0 0 0 0 0 127 0" result="hardAlpha"/>
<feOffset dx="22" dy="10"/>
<feGaussianBlur stdDeviation="7.5"/>
<feColorMatrix type="matrix" values="0 0 0 0 0 0 0 0 0 0 0 0 0 0 0 0 0 0 0.05 0"/>
<feBlend mode="normal" in2="effect2_dropShadow_71_3" result="effect3_dropShadow_71_3"/>
<feColorMatrix in="SourceAlpha" type="matrix" values="0 0 0 0 0 0 0 0 0 0 0 0 0 0 0 0 0 0 127 0" result="hardAlpha"/>
<feOffset dx="39" dy="18"/>
<feGaussianBlur stdDeviation="8.5"/>
<feColorMatrix type="matrix" values="0 0 0 0 0 0 0 0 0 0 0 0 0 0 0 0 0 0 0.01 0"/>
<feBlend mode="normal" in2="effect3_dropShadow_71_3" result="effect4_dropShadow_71_3"/>
<feBlend mode="normal" in="SourceGraphic" in2="effect4_dropShadow_71_3" result="shape"/>
</filter>
</defs>
</svg>
