<svg width="77" height="78" viewBox="0 0 77 78" fill="none" xmlns="http://www.w3.org/2000/svg">
<g clip-path="url(#clip0_30_326)" filter="url(#filter0_dddd_30_326)">
<path fill-rule="evenodd" clip-rule="evenodd" d="M9.35 32.9087C7.11875 30.5435 8.69792 26.5001 11.8542 26.5001H16.6667V8.83342C16.6667 7.66204 17.1057 6.53865 17.8871 5.71036C18.6685 4.88207 19.7283 4.41675 20.8333 4.41675H29.1667C30.2717 4.41675 31.3315 4.88207 32.1129 5.71036C32.8943 6.53865 33.3333 7.66204 33.3333 8.83342V26.5001H38.1458C41.3021 26.5001 42.8812 30.5435 40.65 32.9087L27.2104 47.159C26.9202 47.4669 26.5756 47.711 26.1963 47.8776C25.8171 48.0443 25.4105 48.13 25 48.13C24.5894 48.13 24.1829 48.0443 23.8036 47.8776C23.4244 47.711 23.0798 47.4669 22.7896 47.159L9.35 32.9087Z" fill="#09244B"/>
</g>
<defs>
<filter id="filter0_dddd_30_326" x="-3" y="-3" width="88" height="85" filterUnits="userSpaceOnUse" color-interpolation-filters="sRGB">
<feFlood flood-opacity="0" result="BackgroundImageFix"/>
<feColorMatrix in="SourceAlpha" type="matrix" values="0 0 0 0 0 0 0 0 0 0 0 0 0 0 0 0 0 0 127 0" result="hardAlpha"/>
<feOffset dx="1" dy="1"/>
<feGaussianBlur stdDeviation="2"/>
<feColorMatrix type="matrix" values="0 0 0 0 0 0 0 0 0 0 0 0 0 0 0 0 0 0 0.1 0"/>
<feBlend mode="normal" in2="BackgroundImageFix" result="effect1_dropShadow_30_326"/>
<feColorMatrix in="SourceAlpha" type="matrix" values="0 0 0 0 0 0 0 0 0 0 0 0 0 0 0 0 0 0 127 0" result="hardAlpha"/>
<feOffset dx="6" dy="4"/>
<feGaussianBlur stdDeviation="3.5"/>
<feColorMatrix type="matrix" values="0 0 0 0 0 0 0 0 0 0 0 0 0 0 0 0 0 0 0.09 0"/>
<feBlend mode="normal" in2="effect1_dropShadow_30_326" result="effect2_dropShadow_30_326"/>
<feColorMatrix in="SourceAlpha" type="matrix" values="0 0 0 0 0 0 0 0 0 0 0 0 0 0 0 0 0 0 127 0" result="hardAlpha"/>
<feOffset dx="13" dy="9"/>
<feGaussianBlur stdDeviation="5"/>
<feColorMatrix type="matrix" values="0 0 0 0 0 0 0 0 0 0 0 0 0 0 0 0 0 0 0.05 0"/>
<feBlend mode="normal" in2="effect2_dropShadow_30_326" result="effect3_dropShadow_30_326"/>
<feColorMatrix in="SourceAlpha" type="matrix" values="0 0 0 0 0 0 0 0 0 0 0 0 0 0 0 0 0 0 127 0" result="hardAlpha"/>
<feOffset dx="23" dy="17"/>
<feGaussianBlur stdDeviation="6"/>
<feColorMatrix type="matrix" values="0 0 0 0 0 0 0 0 0 0 0 0 0 0 0 0 0 0 0.01 0"/>
<feBlend mode="normal" in2="effect3_dropShadow_30_326" result="effect4_dropShadow_30_326"/>
<feBlend mode="normal" in="SourceGraphic" in2="effect4_dropShadow_30_326" result="shape"/>
</filter>
<clipPath id="clip0_30_326">
<rect width="50" height="53" fill="white"/>
</clipPath>
</defs>
</svg>
