<svg width="196" height="114" viewBox="0 0 196 114" fill="none" xmlns="http://www.w3.org/2000/svg">
<path d="M60.2748 23.9618V99.0188C60.2748 105.641 63.9541 110.351 68.5163 110.351V113H16.1236V110.351C20.6859 110.351 24.3652 105.641 24.3652 99.0188V24.109C24.3652 17.4863 20.6859 12.6296 16.1236 12.6296V9.98058H68.5163V12.6296C63.9541 12.6296 60.2748 17.3391 60.2748 23.9618ZM107.047 99.166L80.9982 24.2561C78.6435 17.4863 74.0812 12.6296 68.9303 12.6296V9.98058H123.383V12.6296C118.968 12.6296 116.466 17.3391 118.821 23.8146L144.87 98.7245L145.312 99.7546L172.98 23.3731C175.187 17.1919 172.98 12.6296 168.418 12.6296V9.98058H187.844V12.6296C183.429 12.6296 178.131 16.8976 175.629 23.3731L146.931 103.14C149.433 107.408 153.112 110.351 156.938 110.351V113H102.485V110.351C106.9 110.351 109.402 105.641 107.047 99.166Z" fill="#C7E5B1"/>
<path d="M5.04414 88.4552C4.34622 88.4552 3.67864 88.349 3.0414 88.1366C2.40416 87.9545 1.88831 87.6662 1.49383 87.2718C1.09935 86.8773 0.902105 86.3918 0.902105 85.8152C0.902105 85.36 1.09935 84.9959 1.49383 84.7228C1.85796 84.4194 2.19175 84.2676 2.4952 84.2676C2.88968 84.2676 3.14761 84.3738 3.26899 84.5863C3.39036 84.7987 3.45105 84.9959 3.45105 85.178C3.45105 85.36 3.34485 85.5421 3.13243 85.7242C2.88968 85.8759 2.64692 85.9669 2.40416 85.9973C2.19175 86.0276 2.02486 86.0125 1.90348 85.9518C1.75175 85.8911 1.67589 85.8607 1.67589 85.8607C1.67589 86.2856 1.91865 86.7559 2.40416 87.2718C2.85933 87.7573 3.60278 88 4.63449 88C5.96966 88 7.21378 87.6966 8.36688 87.0897C9.51997 86.4828 10.6276 85.6483 11.6896 84.5863C12.7517 83.4939 13.7986 82.2649 14.8303 80.8994C15.8923 79.5339 16.9696 78.1077 18.062 76.6208C19.2454 75.0125 20.5199 73.465 21.8854 71.9781C23.2813 70.4608 24.7378 69.1257 26.255 67.9726C27.7723 66.7891 29.335 65.8636 30.9433 65.1961C32.5515 64.4981 34.175 64.1492 35.8136 64.1492C36.3294 64.1492 36.5722 64.2554 36.5418 64.4678C36.5418 64.6499 36.2232 64.7409 35.586 64.7409C35.3432 64.7409 34.8881 64.7257 34.2205 64.6954C33.5529 64.6347 32.8853 64.5892 32.2177 64.5588C31.5805 64.5285 31.1102 64.5133 30.8067 64.5133C29.4412 64.5133 27.9392 64.8016 26.3005 65.3781C24.6619 65.9547 23.0233 66.7436 21.3847 67.745C19.7765 68.716 18.2896 69.8084 16.9241 71.0222C15.5586 72.236 14.4661 73.4801 13.6468 74.7546C12.8275 76.0291 12.4179 77.2429 12.4179 78.396C12.4179 79.367 12.6758 80.2166 13.1917 80.9449C13.7379 81.6428 14.7999 81.9918 16.3779 81.9918C17.8647 81.9918 19.3213 81.6428 20.7475 80.9449C22.204 80.2166 23.4937 79.276 24.6164 78.1229C25.7695 76.9698 26.6647 75.7256 27.3019 74.3905C27.9695 73.025 28.2578 71.6898 28.1667 70.385C28.1364 69.9602 28.1819 69.7326 28.3033 69.7022C28.4247 69.6719 28.5005 69.854 28.5309 70.2484C28.6826 71.705 28.4398 73.1615 27.8026 74.6181C27.1654 76.0443 26.2702 77.3491 25.1171 78.5325C23.964 79.716 22.6288 80.6718 21.1116 81.4001C19.6247 82.098 18.0772 82.447 16.4689 82.447C14.982 82.447 13.7834 82.0677 12.8731 81.309C11.9931 80.5504 11.5531 79.4125 11.5531 77.8953C11.5531 76.4691 11.902 75.0884 12.6 73.7532C13.2979 72.3877 14.2689 71.1284 15.513 69.9753C16.7572 68.7919 18.1834 67.7602 19.7916 66.8802C21.4302 66.0002 23.1599 65.3174 24.9806 64.8319C26.8316 64.3161 28.7129 64.0581 30.6247 64.0581C31.3529 64.0581 32.1115 64.1036 32.9005 64.1947C33.7198 64.2554 34.4026 64.2857 34.9488 64.2857C35.2825 64.2857 35.4191 64.3312 35.3584 64.4223C35.2977 64.5133 35.1915 64.574 35.0398 64.6043C33.3101 64.9078 31.7474 65.4995 30.3516 66.3795C28.986 67.2291 27.7116 68.276 26.5281 69.5202C25.3447 70.7339 24.2068 72.0843 23.1144 73.5712C22.022 75.0277 20.884 76.5449 19.7006 78.1229C18.6992 79.4884 17.5765 80.7932 16.3323 82.0373C15.0882 83.2511 13.7986 84.3435 12.4634 85.3145C11.1586 86.2856 9.86894 87.0593 8.59446 87.6359C7.31999 88.1821 6.13655 88.4552 5.04414 88.4552ZM31.3977 76.4843C31.7012 76.5146 32.1108 76.5601 32.6267 76.6208C33.1729 76.6511 33.6887 76.6208 34.1743 76.5298C33.6887 77.0456 33.0667 77.698 32.3081 78.487C31.5494 79.2456 30.7301 80.0497 29.8502 80.8994C29.0005 81.749 28.1964 82.5835 27.4378 83.4028C26.7095 84.2221 26.1026 84.9504 25.6171 85.5876C25.1316 86.2249 24.8888 86.7104 24.8888 87.0442C24.8888 87.3476 24.9798 87.5752 25.1619 87.7269C25.344 87.8787 25.6626 87.9545 26.1178 87.9545C26.6033 87.9545 27.2709 87.7724 28.1205 87.4083C29.0005 87.0442 29.9412 86.5587 30.9426 85.9518C31.9439 85.3449 32.915 84.6621 33.8556 83.9035C34.7963 83.1145 35.5853 82.3104 36.2225 81.4911C36.8901 80.6415 37.2846 79.807 37.406 78.9877C37.497 78.4415 37.5425 77.8801 37.5425 77.3036C37.5425 76.9698 37.6791 76.6663 37.9522 76.3932C38.2556 76.0898 38.5591 75.938 38.8625 75.938C39.5301 75.938 39.8639 76.3325 39.8639 77.1215C39.8639 77.8194 39.5149 78.6539 38.817 79.6249C38.1494 80.5959 37.2542 81.5973 36.1315 82.629C35.0391 83.6304 33.8405 84.5711 32.5356 85.4511C31.2612 86.3311 30.0019 87.0442 28.7577 87.5904C27.544 88.1366 26.4819 88.4097 25.5716 88.4097C25.0254 88.4097 24.5854 88.2731 24.2516 88C23.8874 87.7269 23.7054 87.3324 23.7054 86.8166C23.7054 86.24 23.9481 85.5421 24.4336 84.7228C24.9192 83.9035 25.5412 83.0387 26.2998 82.1283C27.0281 81.218 27.7564 80.3532 28.4846 79.5339C29.2433 78.7146 29.8957 78.0318 30.4419 77.4856C30.9881 76.9394 31.3067 76.6056 31.3977 76.4843ZM35.8584 82.2649L36.2225 82.538C35.9191 82.8111 35.6611 83.0994 35.4487 83.4028C35.2667 83.6759 35.1756 83.9794 35.1756 84.3132C35.1756 84.7987 35.4639 85.0414 36.0405 85.0414C36.5867 85.0414 37.1632 84.8138 37.7701 84.3587C38.4073 83.9035 39.0294 83.3725 39.6363 82.7656C40.2432 82.1587 40.759 81.658 41.1839 81.2635L41.548 81.5366C41.1232 81.9918 40.5921 82.538 39.9549 83.1752C39.348 83.7821 38.6956 84.3132 37.9977 84.7683C37.2998 85.2235 36.6473 85.4511 36.0405 85.4511C35.1605 85.4511 34.7205 85.0869 34.7205 84.3587C34.7205 83.9339 34.7963 83.6001 34.948 83.3573C35.0998 83.0842 35.4032 82.7201 35.8584 82.2649ZM49.0345 76.3932C50.5517 76.3932 51.3103 77.1215 51.3103 78.578C51.3103 79.7008 51.0524 80.8539 50.5365 82.0373C50.0207 83.1904 49.3227 84.2525 48.4427 85.2235C47.5628 86.1642 46.6069 86.938 45.5752 87.5449C44.5435 88.1214 43.4966 88.4097 42.4345 88.4097C41.6152 88.4097 40.9325 88.2124 40.3863 87.818C39.8097 87.3931 39.5214 86.7104 39.5214 85.7697C39.5214 84.8897 39.7794 83.9187 40.2952 82.8566C40.8111 81.7642 41.509 80.7325 42.389 79.7615C43.2993 78.7904 44.3159 77.9863 45.4386 77.3491C46.5917 76.7118 47.7903 76.3932 49.0345 76.3932ZM49.5352 77.0305C49.0193 77.0305 48.4124 77.258 47.7145 77.7132C47.0165 78.1684 46.3034 78.7601 45.5752 79.4884C44.8469 80.2166 44.1642 81.0056 43.5269 81.8552C42.92 82.6746 42.4193 83.4787 42.0249 84.2676C41.6607 85.0566 41.4787 85.7242 41.4787 86.2704C41.4787 86.8773 41.6456 87.3021 41.9793 87.5449C42.3131 87.7573 42.6924 87.8635 43.1173 87.8635C43.8152 87.8635 44.6042 87.5752 45.4841 86.9987C46.3641 86.3918 47.2138 85.6332 48.0331 84.7228C48.8524 83.8125 49.52 82.8566 50.0358 81.8552C50.582 80.8235 50.8551 79.8828 50.8551 79.0332C50.8551 78.2442 50.7186 77.7132 50.4455 77.4401C50.1724 77.167 49.8689 77.0305 49.5352 77.0305ZM50.3545 81.7187C50.5062 81.7187 50.5669 81.7794 50.5365 81.9008C50.5365 81.9918 50.4607 82.0373 50.3089 82.0373C50.1876 82.0373 50.0055 82.2042 49.7627 82.538C49.5503 82.8414 49.3531 83.1601 49.171 83.4939C48.9889 83.8276 48.8979 84.0097 48.8979 84.0401C48.8979 84.738 49.1558 85.0869 49.6717 85.0869C50.1572 85.0869 50.7034 84.8594 51.3103 84.4042C51.9475 83.949 52.5544 83.4332 53.131 82.8566C53.7379 82.2497 54.2234 81.7187 54.5875 81.2635L54.9517 81.5821C54.5572 82.0373 54.0565 82.5835 53.4496 83.2208C52.8427 83.8276 52.2055 84.3738 51.5379 84.8594C50.8703 85.3145 50.2482 85.5421 49.6717 85.5421C49.1862 85.5421 48.8524 85.4359 48.6703 85.2235C48.4883 85.0111 48.3972 84.6318 48.3972 84.0856C48.3972 83.3573 48.64 82.7808 49.1255 82.3559C49.6414 81.9311 50.051 81.7187 50.3545 81.7187ZM64.1436 88.4097C62.5353 88.4097 61.7312 87.9393 61.7312 86.9987C61.7312 86.3918 61.9284 85.7394 62.3229 85.0414C62.7477 84.3435 63.2636 83.6456 63.8705 82.9477C64.4774 82.2194 65.0843 81.5063 65.6912 80.8084C66.3284 80.1104 66.8443 79.4732 67.2387 78.8966C67.6636 78.2898 67.876 77.7739 67.876 77.3491C67.876 77.1973 67.8001 77.076 67.6484 76.9849C67.527 76.8636 67.3449 76.8029 67.1022 76.8029C66.7381 76.8029 66.2222 76.9849 65.5546 77.3491C64.9174 77.7132 64.0981 78.3353 63.0967 79.2153C62.1257 80.0649 60.9726 81.218 59.6374 82.6746C58.3023 84.1007 56.7698 85.8911 55.0402 88.0455C54.7671 87.9849 54.3575 87.9545 53.8112 87.9545C53.265 87.9545 52.7947 88.0152 52.4002 88.1366C53.2802 86.8621 54.145 85.618 54.9947 84.4042C55.8443 83.1904 56.6181 82.0828 57.3161 81.0815C58.0443 80.0801 58.6209 79.2608 59.0457 78.6235C59.4705 77.956 59.6829 77.5463 59.6829 77.3946C59.6829 77.1215 59.5464 76.9849 59.2733 76.9849C58.9698 76.9849 58.5905 77.2277 58.1354 77.7132C57.6802 78.1684 57.1795 78.7601 56.6333 79.4884C56.0871 80.1863 55.5257 80.8994 54.9492 81.6277L54.5395 81.3546C55.1464 80.6566 55.7381 79.9284 56.3147 79.1697C56.8912 78.4111 57.4829 77.7587 58.0898 77.2125C58.6967 76.6663 59.334 76.3932 60.0016 76.3932C60.3353 76.3932 60.6388 76.4843 60.9119 76.6663C61.2153 76.818 61.3671 77.076 61.3671 77.4401C61.3671 77.7739 61.2305 78.1835 60.9574 78.6691C60.7146 79.1242 60.3809 79.6553 59.956 80.2622C59.5312 80.8387 59.0457 81.4911 58.4995 82.2194C57.9836 82.9173 57.4374 83.6759 56.8609 84.4952L56.9064 84.7683C58.5147 83.0083 59.865 81.5821 60.9574 80.4897C62.0802 79.3973 63.0057 78.5629 63.7339 77.9863C64.4926 77.3794 65.145 76.9698 65.6912 76.7574C66.2677 76.5146 66.8139 76.3932 67.3298 76.3932C68.0277 76.3932 68.5284 76.5449 68.8318 76.8484C69.1353 77.1215 69.287 77.5008 69.287 77.9863C69.287 78.7146 69.0746 79.4884 68.6498 80.3077C68.2249 81.0966 67.6939 81.8856 67.0567 82.6746C66.4498 83.4332 65.8277 84.1463 65.1905 84.8138C64.5836 85.4511 64.0677 85.9973 63.6429 86.4525C63.2181 86.9076 63.0057 87.2111 63.0057 87.3628C63.0057 87.5449 63.0512 87.6814 63.1422 87.7724C63.2636 87.8635 63.5519 87.909 64.007 87.909C65.1298 87.909 66.1919 87.56 67.1932 86.8621C68.2249 86.1642 69.2111 85.3145 70.1518 84.3132C71.0925 83.2814 71.9725 82.2649 72.7918 81.2635L73.1559 81.5821C72.3366 82.5532 71.4415 83.5697 70.4704 84.6318C69.4994 85.6938 68.4829 86.589 67.4208 87.3173C66.3587 88.0455 65.2663 88.4097 64.1436 88.4097ZM74.8589 88.4097C73.4327 88.4097 72.492 88.0911 72.0369 87.4538C71.5817 86.7862 71.3541 86.0883 71.3541 85.36C71.3541 84.1159 71.6727 82.9628 72.31 81.9008C72.9472 80.8084 73.7665 79.8373 74.7679 78.9877C75.7693 78.138 76.801 77.4856 77.863 77.0305C78.9554 76.5449 79.9265 76.3022 80.7761 76.3022C81.383 76.3022 81.8685 76.3932 82.2327 76.5753C82.5968 76.727 82.7789 77.0608 82.7789 77.5767C82.7789 78.0622 82.4906 78.578 81.914 79.1242C81.3375 79.6704 80.6092 80.2015 79.7292 80.7173C78.8492 81.2028 77.9237 81.658 76.9527 82.0828C76.012 82.4773 75.1472 82.7959 74.3582 83.0387C73.5693 83.2814 72.9927 83.4028 72.6286 83.4028C72.6286 83.4028 72.6286 83.327 72.6286 83.1752C72.6286 82.9932 72.6286 82.9021 72.6286 82.9021C72.9017 82.9325 73.372 82.8414 74.0396 82.629C74.7375 82.4166 75.5113 82.1435 76.361 81.8097C77.2106 81.4456 78.0299 81.0359 78.8189 80.5808C79.6382 80.1256 80.3058 79.6401 80.8216 79.1242C81.3678 78.6084 81.6409 78.1077 81.6409 77.6222C81.6409 77.3794 81.5651 77.167 81.4134 76.9849C81.292 76.8029 81.0644 76.7118 80.7306 76.7118C80.2451 76.7118 79.6534 76.9546 78.9554 77.4401C78.2879 77.8953 77.6051 78.5022 76.9072 79.2608C76.2093 80.0194 75.5568 80.8235 74.9499 81.6732C74.3431 82.5228 73.8424 83.3421 73.4479 84.1311C73.0838 84.8897 72.9017 85.5269 72.9017 86.0428C72.9017 86.6497 73.0838 87.1049 73.4479 87.4083C73.812 87.7118 74.3431 87.8635 75.041 87.8635C76.2548 87.8635 77.3927 87.5752 78.4548 86.9987C79.5472 86.3918 80.5334 85.6938 81.4134 84.9049C82.2933 84.0856 83.0368 83.327 83.6437 82.629C84.2506 81.9008 84.6602 81.4304 84.8726 81.218C84.8726 81.218 84.9182 81.2635 85.0092 81.3546C85.1306 81.4456 85.1913 81.4911 85.1913 81.4911C84.9788 81.7339 84.5692 82.2194 83.9623 82.9477C83.3554 83.6759 82.5968 84.4649 81.6865 85.3145C80.7761 86.1642 79.7444 86.8925 78.5913 87.4993C77.4382 88.1062 76.1941 88.4097 74.8589 88.4097ZM86.9049 88.4097C85.4787 88.4097 84.538 88.0911 84.0828 87.4538C83.6277 86.7862 83.4001 86.0883 83.4001 85.36C83.4001 84.1159 83.7187 82.9628 84.3559 81.9008C84.9932 80.8084 85.8125 79.8373 86.8139 78.9877C87.8152 78.138 88.8469 77.4856 89.909 77.0305C91.0014 76.5449 91.9724 76.3022 92.8221 76.3022C93.429 76.3022 93.9145 76.3932 94.2786 76.5753C94.6428 76.727 94.8248 77.0608 94.8248 77.5767C94.8248 78.0622 94.5366 78.578 93.96 79.1242C93.3835 79.6704 92.6552 80.2015 91.7752 80.7173C90.8952 81.2028 89.9697 81.658 88.9987 82.0828C88.058 82.4773 87.1932 82.7959 86.4042 83.0387C85.6152 83.2814 85.0387 83.4028 84.6746 83.4028C84.6746 83.4028 84.6746 83.327 84.6746 83.1752C84.6746 82.9932 84.6746 82.9021 84.6746 82.9021C84.9477 82.9325 85.418 82.8414 86.0856 82.629C86.7835 82.4166 87.5573 82.1435 88.4069 81.8097C89.2566 81.4456 90.0759 81.0359 90.8649 80.5808C91.6842 80.1256 92.3517 79.6401 92.8676 79.1242C93.4138 78.6084 93.6869 78.1077 93.6869 77.6222C93.6869 77.3794 93.611 77.167 93.4593 76.9849C93.3379 76.8029 93.1104 76.7118 92.7766 76.7118C92.2911 76.7118 91.6993 76.9546 91.0014 77.4401C90.3338 77.8953 89.6511 78.5022 88.9532 79.2608C88.2552 80.0194 87.6028 80.8235 86.9959 81.6732C86.389 82.5228 85.8883 83.3421 85.4939 84.1311C85.1297 84.8897 84.9477 85.5269 84.9477 86.0428C84.9477 86.6497 85.1297 87.1049 85.4939 87.4083C85.858 87.7118 86.389 87.8635 87.087 87.8635C88.3007 87.8635 89.4387 87.5752 90.5007 86.9987C91.5931 86.3918 92.5793 85.6938 93.4593 84.9049C94.3393 84.0856 95.0828 83.327 95.6897 82.629C96.2965 81.9008 96.7062 81.4304 96.9186 81.218C96.9186 81.218 96.9641 81.2635 97.0552 81.3546C97.1765 81.4456 97.2372 81.4911 97.2372 81.4911C97.0248 81.7339 96.6152 82.2194 96.0083 82.9477C95.4014 83.6759 94.6428 84.4649 93.7324 85.3145C92.8221 86.1642 91.7904 86.8925 90.6373 87.4993C89.4842 88.1062 88.2401 88.4097 86.9049 88.4097ZM110.458 88.4097C109.396 88.4097 108.607 88.258 108.091 87.9545C107.575 87.6207 107.241 87.2566 107.09 86.8621C106.938 86.4676 106.862 86.1642 106.862 85.9518C106.862 85.5573 106.998 85.2235 107.272 84.9504C107.545 84.6773 107.924 84.5407 108.41 84.5407C108.652 84.5407 108.88 84.6166 109.092 84.7683C109.274 84.8897 109.365 85.0869 109.365 85.36C109.365 85.6635 109.259 85.8911 109.047 86.0428C108.834 86.1642 108.592 86.2249 108.318 86.2249C108.106 86.2249 107.924 86.2097 107.772 86.1794C107.621 86.1187 107.545 86.0883 107.545 86.0883C107.545 86.4828 107.742 86.8925 108.136 87.3173C108.531 87.7118 109.198 87.909 110.139 87.909C111.535 87.909 112.809 87.5145 113.963 86.7256C115.116 85.9063 116.208 84.8594 117.24 83.5849C118.272 82.3104 119.288 80.9449 120.289 79.4884C121.291 78.0318 122.338 76.636 123.43 75.3008C124.887 73.5105 126.374 71.8415 127.891 70.2939C129.408 68.716 130.956 67.3657 132.533 66.2429C134.111 65.0898 135.72 64.2857 137.358 63.8305C137.601 63.7699 137.738 63.8154 137.768 63.9671C137.798 64.1188 137.692 64.225 137.449 64.2857C136.144 64.6499 134.87 65.3478 133.626 66.3795C132.382 67.4112 131.153 68.6705 129.939 70.1574C128.756 71.6139 127.557 73.1767 126.343 74.8456C125.16 76.4843 123.946 78.1077 122.702 79.716C121.488 81.3242 120.229 82.7808 118.924 84.0856C117.619 85.3904 116.269 86.4373 114.873 87.2262C113.477 88.0152 112.005 88.4097 110.458 88.4097ZM126.571 78.4415C124.78 78.4415 123.385 78.1987 122.383 77.7132C121.382 77.2277 120.881 76.5753 120.881 75.756C120.881 75.3312 121.018 74.9974 121.291 74.7546C121.564 74.4815 121.867 74.2994 122.201 74.2084C122.565 74.087 122.854 74.0263 123.066 74.0263C123.248 74.0263 123.339 74.087 123.339 74.2084C123.339 74.2994 123.263 74.3601 123.111 74.3905C122.717 74.4512 122.353 74.6484 122.019 74.9822C121.716 75.2856 121.564 75.5739 121.564 75.847C121.564 76.2415 121.943 76.6967 122.702 77.2125C123.491 77.7284 124.705 77.9863 126.343 77.9863C127.162 77.9863 128.103 77.8042 129.165 77.4401C130.227 77.0456 131.244 76.4691 132.215 75.7105C133.216 74.9215 134.036 73.9656 134.673 72.8429C135.31 71.6898 135.629 70.3546 135.629 68.8374C135.629 67.1381 134.87 65.9395 133.353 65.2416C131.866 64.5133 129.818 64.1492 127.208 64.1492C125.054 64.1492 123.005 64.4678 121.063 65.105C119.121 65.7423 117.392 66.5616 115.874 67.5629C114.387 68.5643 113.204 69.6415 112.324 70.7946C111.474 71.9477 111.049 73.0401 111.049 74.0719C111.049 75.1036 111.292 75.847 111.778 76.3022C112.294 76.7574 112.901 76.9849 113.598 76.9849C114.448 76.9849 115.298 76.727 116.147 76.2111C117.027 75.6649 117.847 74.9822 118.605 74.1629C119.364 73.3132 120.047 72.4332 120.654 71.5229C121.26 70.5822 121.746 69.7174 122.11 68.9284C122.474 68.1395 122.671 67.5326 122.702 67.1078C122.732 66.8043 122.793 66.6526 122.884 66.6526C123.005 66.6526 123.081 66.7588 123.111 66.9712C123.203 67.9119 123.036 68.9891 122.611 70.2029C122.216 71.3864 121.594 72.5395 120.745 73.6622C119.925 74.7546 118.909 75.6649 117.695 76.3932C116.481 77.1215 115.131 77.4856 113.644 77.4856C112.703 77.4856 111.945 77.1973 111.368 76.6208C110.792 76.0139 110.503 75.1491 110.503 74.0263C110.503 72.9339 110.943 71.796 111.823 70.6126C112.703 69.3988 113.917 68.276 115.465 67.2443C117.012 66.2126 118.787 65.3781 120.79 64.7409C122.823 64.0733 124.962 63.7395 127.208 63.7395C129.848 63.7395 131.927 64.043 133.444 64.6499C134.991 65.2567 136.084 66.0609 136.721 67.0622C137.389 68.0333 137.722 69.065 137.722 70.1574C137.722 71.007 137.434 71.9174 136.858 72.8884C136.311 73.8594 135.538 74.7698 134.536 75.6194C133.535 76.4387 132.351 77.1215 130.986 77.6677C129.651 78.1835 128.179 78.4415 126.571 78.4415ZM135.711 88.4097C134.285 88.4097 133.344 88.0911 132.889 87.4538C132.434 86.7862 132.206 86.0883 132.206 85.36C132.206 84.1159 132.525 82.9628 133.162 81.9008C133.799 80.8084 134.619 79.8373 135.62 78.9877C136.621 78.138 137.653 77.4856 138.715 77.0305C139.808 76.5449 140.779 76.3022 141.628 76.3022C142.235 76.3022 142.721 76.3932 143.085 76.5753C143.449 76.727 143.631 77.0608 143.631 77.5767C143.631 78.0622 143.343 78.578 142.766 79.1242C142.19 79.6704 141.461 80.2015 140.581 80.7173C139.701 81.2028 138.776 81.658 137.805 82.0828C136.864 82.4773 135.999 82.7959 135.21 83.0387C134.421 83.2814 133.845 83.4028 133.481 83.4028C133.481 83.4028 133.481 83.327 133.481 83.1752C133.481 82.9932 133.481 82.9021 133.481 82.9021C133.754 82.9325 134.224 82.8414 134.892 82.629C135.59 82.4166 136.364 82.1435 137.213 81.8097C138.063 81.4456 138.882 81.0359 139.671 80.5808C140.49 80.1256 141.158 79.6401 141.674 79.1242C142.22 78.6084 142.493 78.1077 142.493 77.6222C142.493 77.3794 142.417 77.167 142.266 76.9849C142.144 76.8029 141.917 76.7118 141.583 76.7118C141.097 76.7118 140.506 76.9546 139.808 77.4401C139.14 77.8953 138.457 78.5022 137.759 79.2608C137.061 80.0194 136.409 80.8235 135.802 81.6732C135.195 82.5228 134.695 83.3421 134.3 84.1311C133.936 84.8897 133.754 85.5269 133.754 86.0428C133.754 86.6497 133.936 87.1049 134.3 87.4083C134.664 87.7118 135.195 87.8635 135.893 87.8635C137.107 87.8635 138.245 87.5752 139.307 86.9987C140.399 86.3918 141.386 85.6938 142.266 84.9049C143.146 84.0856 143.889 83.327 144.496 82.629C145.103 81.9008 145.512 81.4304 145.725 81.218C145.725 81.218 145.77 81.2635 145.861 81.3546C145.983 81.4456 146.043 81.4911 146.043 81.4911C145.831 81.7339 145.421 82.2194 144.815 82.9477C144.208 83.6759 143.449 84.4649 142.539 85.3145C141.628 86.1642 140.597 86.8925 139.444 87.4993C138.29 88.1062 137.046 88.4097 135.711 88.4097ZM144.161 89.0469C143.099 89.0469 142.295 88.8497 141.749 88.4552C141.203 88.0607 140.93 87.5297 140.93 86.8621C140.93 86.3766 141.096 85.9518 141.43 85.5876C141.734 85.1932 142.098 84.8897 142.523 84.6773C142.947 84.4345 143.281 84.3132 143.524 84.3132C143.858 84.3132 144.085 84.389 144.207 84.5407C144.298 84.6621 144.343 84.7987 144.343 84.9504C144.343 85.1932 144.207 85.3904 143.934 85.5421C143.63 85.6938 143.387 85.7697 143.205 85.7697C142.993 85.7697 142.811 85.709 142.659 85.5876C142.477 85.4359 142.386 85.36 142.386 85.36C142.234 85.3904 142.022 85.5573 141.749 85.8607C141.476 86.1642 141.339 86.498 141.339 86.8621C141.339 87.2262 141.536 87.5752 141.931 87.909C142.325 88.2428 142.963 88.4097 143.843 88.4097C144.753 88.4097 145.618 88.1062 146.437 87.4993C147.287 86.8925 147.985 86.1187 148.531 85.178C149.077 84.2373 149.35 83.2814 149.35 82.3104C149.35 81.9766 149.35 81.5366 149.35 80.9904C149.35 80.4139 149.35 79.9435 149.35 79.5794C149.35 79.1242 149.426 78.6084 149.578 78.0318C149.729 77.4249 149.896 76.8636 150.078 76.3477C150.291 75.8318 150.458 75.5132 150.579 75.3918C150.822 75.1794 151.004 75.1187 151.125 75.2098C151.247 75.3008 151.277 75.3918 151.216 75.4829C151.186 75.5132 150.989 75.756 150.625 76.2111C150.261 76.636 149.805 77.167 149.259 77.8042C148.713 78.4415 148.167 79.0787 147.621 79.716C147.074 80.3532 146.589 80.9146 146.164 81.4001C145.77 81.8856 145.542 82.1739 145.481 82.2649C145.33 82.4773 145.193 82.5228 145.072 82.4014C144.95 82.2801 144.981 82.1283 145.163 81.9463C145.496 81.5215 145.906 81.0208 146.392 80.4442C146.907 79.8373 147.423 79.2456 147.939 78.6691C148.455 78.0925 148.895 77.607 149.259 77.2125C149.654 76.7877 149.866 76.5449 149.896 76.4843C149.987 76.3629 150.063 76.1505 150.124 75.847C150.215 75.5436 150.321 75.2553 150.443 74.9822C150.594 74.7091 150.776 74.5725 150.989 74.5725C151.505 74.5725 151.763 74.7546 151.763 75.1187C151.763 75.3918 151.55 75.7256 151.125 76.1201C150.731 76.5146 150.503 76.8332 150.443 77.076C150.352 77.4401 150.352 77.956 150.443 78.6235C150.564 79.2608 150.685 79.9891 150.807 80.8084C150.958 81.6277 151.034 82.4925 151.034 83.4028C151.034 84.6166 150.792 85.6028 150.306 86.3614C149.821 87.0897 149.214 87.6511 148.485 88.0455C147.757 88.44 146.998 88.698 146.21 88.8193C145.451 88.9711 144.768 89.0469 144.161 89.0469ZM151.171 85.9063C150.382 85.9063 149.866 85.7545 149.623 85.4511C149.411 85.1476 149.335 84.7987 149.396 84.4042C149.487 83.9794 149.593 83.6001 149.714 83.2663L150.169 83.3118C150.078 83.6152 149.987 83.9339 149.896 84.2676C149.836 84.6014 149.881 84.8897 150.033 85.1325C150.185 85.3752 150.579 85.4966 151.216 85.4966C151.672 85.4966 152.187 85.2842 152.764 84.8594C153.341 84.4345 153.902 83.9187 154.448 83.3118C155.025 82.7049 155.51 82.1132 155.905 81.5366L156.314 81.8552C155.92 82.3408 155.434 82.9021 154.858 83.5394C154.312 84.1766 153.72 84.738 153.083 85.2235C152.445 85.6787 151.808 85.9063 151.171 85.9063ZM154.429 89.0469C153.367 89.0469 152.563 88.8497 152.017 88.4552C151.471 88.0607 151.198 87.5297 151.198 86.8621C151.198 86.3766 151.364 85.9518 151.698 85.5876C152.002 85.1932 152.366 84.8897 152.791 84.6773C153.215 84.4345 153.549 84.3132 153.792 84.3132C154.126 84.3132 154.353 84.389 154.475 84.5407C154.566 84.6621 154.611 84.7987 154.611 84.9504C154.611 85.1932 154.475 85.3904 154.202 85.5421C153.898 85.6938 153.655 85.7697 153.473 85.7697C153.261 85.7697 153.079 85.709 152.927 85.5876C152.745 85.4359 152.654 85.36 152.654 85.36C152.502 85.3904 152.29 85.5573 152.017 85.8607C151.744 86.1642 151.607 86.498 151.607 86.8621C151.607 87.2262 151.804 87.5752 152.199 87.909C152.593 88.2428 153.231 88.4097 154.111 88.4097C155.021 88.4097 155.886 88.1062 156.705 87.4993C157.555 86.8925 158.253 86.1187 158.799 85.178C159.345 84.2373 159.618 83.2814 159.618 82.3104C159.618 81.9766 159.618 81.5366 159.618 80.9904C159.618 80.4139 159.618 79.9435 159.618 79.5794C159.618 79.1242 159.694 78.6084 159.846 78.0318C159.997 77.4249 160.164 76.8636 160.346 76.3477C160.559 75.8318 160.726 75.5132 160.847 75.3918C161.09 75.1794 161.272 75.1187 161.393 75.2098C161.515 75.3008 161.545 75.3918 161.484 75.4829C161.454 75.5132 161.257 75.756 160.893 76.2111C160.528 76.636 160.073 77.167 159.527 77.8042C158.981 78.4415 158.435 79.0787 157.889 79.716C157.342 80.3532 156.857 80.9146 156.432 81.4001C156.037 81.8856 155.81 82.1739 155.749 82.2649C155.597 82.4773 155.461 82.5228 155.34 82.4014C155.218 82.2801 155.249 82.1283 155.431 81.9463C155.764 81.5215 156.174 81.0208 156.66 80.4442C157.175 79.8373 157.691 79.2456 158.207 78.6691C158.723 78.0925 159.163 77.607 159.527 77.2125C159.922 76.7877 160.134 76.5449 160.164 76.4843C160.255 76.3629 160.331 76.1505 160.392 75.847C160.483 75.5436 160.589 75.2553 160.711 74.9822C160.862 74.7091 161.044 74.5725 161.257 74.5725C161.773 74.5725 162.031 74.7546 162.031 75.1187C162.031 75.3918 161.818 75.7256 161.393 76.1201C160.999 76.5146 160.771 76.8332 160.711 77.076C160.62 77.4401 160.62 77.956 160.711 78.6235C160.832 79.2608 160.953 79.9891 161.075 80.8084C161.226 81.6277 161.302 82.4925 161.302 83.4028C161.302 84.6166 161.06 85.6028 160.574 86.3614C160.089 87.0897 159.482 87.6511 158.753 88.0455C158.025 88.44 157.266 88.698 156.477 88.8193C155.719 88.9711 155.036 89.0469 154.429 89.0469ZM161.439 85.9063C160.65 85.9063 160.134 85.7545 159.891 85.4511C159.679 85.1476 159.603 84.7987 159.664 84.4042C159.755 83.9794 159.861 83.6001 159.982 83.2663L160.437 83.3118C160.346 83.6152 160.255 83.9339 160.164 84.2676C160.104 84.6014 160.149 84.8897 160.301 85.1325C160.453 85.3752 160.847 85.4966 161.484 85.4966C161.94 85.4966 162.455 85.2842 163.032 84.8594C163.608 84.4345 164.17 83.9187 164.716 83.3118C165.293 82.7049 165.778 82.1132 166.173 81.5366L166.582 81.8552C166.188 82.3408 165.702 82.9021 165.126 83.5394C164.58 84.1766 163.988 84.738 163.351 85.2235C162.713 85.6787 162.076 85.9063 161.439 85.9063ZM174.028 76.3932C175.545 76.3932 176.304 77.1215 176.304 78.578C176.304 79.7008 176.046 80.8539 175.53 82.0373C175.014 83.1904 174.316 84.2525 173.436 85.2235C172.556 86.1642 171.601 86.938 170.569 87.5449C169.537 88.1214 168.49 88.4097 167.428 88.4097C166.609 88.4097 165.926 88.2124 165.38 87.818C164.803 87.3931 164.515 86.7104 164.515 85.7697C164.515 84.8897 164.773 83.9187 165.289 82.8566C165.805 81.7642 166.503 80.7325 167.383 79.7615C168.293 78.7904 169.31 77.9863 170.432 77.3491C171.585 76.7118 172.784 76.3932 174.028 76.3932ZM174.529 77.0305C174.013 77.0305 173.406 77.258 172.708 77.7132C172.01 78.1684 171.297 78.7601 170.569 79.4884C169.841 80.2166 169.158 81.0056 168.521 81.8552C167.914 82.6746 167.413 83.4787 167.019 84.2676C166.654 85.0566 166.472 85.7242 166.472 86.2704C166.472 86.8773 166.639 87.3021 166.973 87.5449C167.307 87.7573 167.686 87.8635 168.111 87.8635C168.809 87.8635 169.598 87.5752 170.478 86.9987C171.358 86.3918 172.207 85.6332 173.027 84.7228C173.846 83.8125 174.514 82.8566 175.03 81.8552C175.576 80.8235 175.849 79.8828 175.849 79.0332C175.849 78.2442 175.712 77.7132 175.439 77.4401C175.166 77.167 174.863 77.0305 174.529 77.0305ZM175.348 81.7187C175.5 81.7187 175.561 81.7794 175.53 81.9008C175.53 81.9918 175.454 82.0373 175.303 82.0373C175.181 82.0373 174.999 82.2042 174.756 82.538C174.544 82.8414 174.347 83.1601 174.165 83.4939C173.983 83.8276 173.892 84.0097 173.892 84.0401C173.892 84.738 174.15 85.0869 174.665 85.0869C175.151 85.0869 175.697 84.8594 176.304 84.4042C176.941 83.949 177.548 83.4332 178.125 82.8566C178.732 82.2497 179.217 81.7187 179.581 81.2635L179.945 81.5821C179.551 82.0373 179.05 82.5835 178.443 83.2208C177.836 83.8276 177.199 84.3738 176.532 84.8594C175.864 85.3145 175.242 85.5421 174.665 85.5421C174.18 85.5421 173.846 85.4359 173.664 85.2235C173.482 85.0111 173.391 84.6318 173.391 84.0856C173.391 83.3573 173.634 82.7808 174.119 82.3559C174.635 81.9311 175.045 81.7187 175.348 81.7187ZM189.456 80.0346C189.335 80.2773 189.152 80.4897 188.91 80.6718C188.697 80.8539 188.53 80.9753 188.409 81.0359C188.318 81.0663 188.348 80.9753 188.5 80.7628C189.046 80.0953 189.395 79.4732 189.547 78.8966C189.729 78.3201 189.729 77.8649 189.547 77.5311C189.395 77.167 189.092 76.9849 188.637 76.9849C188.03 76.9849 187.317 77.2277 186.497 77.7132C185.678 78.1987 184.828 78.836 183.948 79.6249C183.099 80.4139 182.295 81.2635 181.536 82.1739C180.808 83.0539 180.216 83.9187 179.761 84.7683C179.306 85.5876 179.078 86.3007 179.078 86.9076C179.078 87.3628 179.169 87.6511 179.351 87.7724C179.533 87.8938 179.715 87.9545 179.897 87.9545C180.595 87.9545 181.399 87.6359 182.31 86.9987C183.25 86.3311 184.206 85.4966 185.177 84.4952C186.148 83.4939 187.074 82.4773 187.954 81.4456C188.834 80.3835 189.592 79.4277 190.23 78.578C190.897 77.7284 191.352 77.1518 191.595 76.8484C191.929 76.9698 192.323 77.0153 192.779 76.9849C193.264 76.9546 193.674 76.9242 194.008 76.8939C193.947 76.9849 193.628 77.3642 193.052 78.0318C192.506 78.6994 191.838 79.5035 191.049 80.4442C190.29 81.3546 189.517 82.2952 188.728 83.2663C187.969 84.2373 187.332 85.0869 186.816 85.8152C186.3 86.5435 186.042 87.029 186.042 87.2718C186.042 87.5752 186.103 87.7724 186.224 87.8635C186.376 87.9242 186.604 87.9545 186.907 87.9545C187.271 87.9242 187.802 87.7573 188.5 87.4538C189.198 87.12 190.093 86.4828 191.186 85.5421C192.278 84.6014 193.598 83.2056 195.146 81.3546C195.146 81.3546 195.206 81.4001 195.328 81.4911C195.479 81.5821 195.555 81.6277 195.555 81.6277C193.735 83.7518 192.05 85.4207 190.503 86.6345C188.955 87.818 187.544 88.4097 186.27 88.4097C185.602 88.4097 185.147 88.3035 184.904 88.0911C184.692 87.8787 184.586 87.5752 184.586 87.1807C184.586 86.8773 184.707 86.5131 184.95 86.0883C185.223 85.6332 185.526 85.1932 185.86 84.7683C186.194 84.3435 186.467 84.0097 186.679 83.767C186.679 83.767 186.649 83.7518 186.588 83.7214C186.528 83.6911 186.497 83.6759 186.497 83.6759C185.799 84.5256 185.056 85.3145 184.267 86.0428C183.478 86.7711 182.689 87.3476 181.9 87.7724C181.141 88.1973 180.398 88.4097 179.67 88.4097C178.911 88.4097 178.38 88.2276 178.077 87.8635C177.773 87.469 177.622 86.8773 177.622 86.0883C177.622 85.3297 177.864 84.4194 178.35 83.3573C178.835 82.2649 179.533 81.2028 180.444 80.1711C181.354 79.1091 182.446 78.2291 183.721 77.5311C185.026 76.8332 186.482 76.4843 188.09 76.4843C188.879 76.4843 189.426 76.636 189.729 76.9394C190.032 77.2125 190.169 77.5463 190.139 77.9408C190.108 78.3353 190.017 78.7298 189.866 79.1242C189.714 79.5187 189.577 79.8222 189.456 80.0346Z" fill="black"/>
</svg>
