<svg width="551" height="410" viewBox="0 0 551 410" fill="none" xmlns="http://www.w3.org/2000/svg">
<g clip-path="url(#clip0_32_355)">
<path d="M535.482 348.404C532.99 328.359 520.57 308.61 501.457 302.087C508.994 322.718 508.993 345.351 501.452 365.981C498.515 373.927 494.422 382.458 497.184 390.466C498.903 395.449 503.108 399.261 507.808 401.645C512.509 404.029 517.725 405.165 522.877 406.278L523.89 407.117C532.068 388.648 537.975 368.448 535.482 348.404Z" fill="#F0F0F0"/>
<path d="M501.267 302.466C512.398 314.939 519.316 330.603 521.038 347.233C521.473 350.807 521.341 354.426 520.649 357.959C519.863 361.378 518.176 364.524 515.763 367.071C513.561 369.491 511.029 371.711 509.453 374.624C508.669 376.127 508.211 377.779 508.11 379.471C508.008 381.164 508.266 382.859 508.866 384.444C510.257 388.435 512.998 391.687 515.79 394.775C518.89 398.203 522.163 401.715 523.481 406.26C523.641 406.81 524.485 406.53 524.326 405.98C522.034 398.073 514.359 393.582 510.699 386.46C508.992 383.137 508.275 379.279 509.876 375.771C511.276 372.703 513.886 370.412 516.136 367.981C518.526 365.531 520.28 362.533 521.245 359.249C522.115 355.763 522.386 352.155 522.046 348.578C521.408 340.513 519.506 332.6 516.41 325.126C512.924 316.577 508.002 308.687 501.856 301.798C501.476 301.372 500.889 302.042 501.267 302.466Z" fill="white"/>
<path d="M520.799 341.846C523.549 341.178 525.973 339.554 527.636 337.264C529.3 334.974 530.096 332.167 529.881 329.344C529.836 328.773 528.947 328.817 528.992 329.389C529.197 332.017 528.455 334.631 526.902 336.761C525.348 338.89 523.084 340.394 520.52 341C519.962 341.133 520.245 341.977 520.799 341.846Z" fill="white"/>
<path d="M517.041 365.991C512.074 363.025 508.407 358.294 506.771 352.744C506.61 352.194 505.765 352.473 505.926 353.023C507.639 358.796 511.465 363.711 516.641 366.786C517.135 367.079 517.532 366.282 517.041 365.991Z" fill="white"/>
<path d="M512.099 317.42C511.088 317.9 509.975 318.122 508.857 318.065C507.74 318.008 506.655 317.675 505.698 317.095C505.208 316.796 504.811 317.593 505.298 317.89C506.357 318.526 507.557 318.893 508.791 318.958C510.025 319.024 511.257 318.786 512.378 318.265C512.487 318.225 512.578 318.145 512.63 318.04C512.683 317.936 512.694 317.815 512.661 317.703C512.623 317.591 512.543 317.499 512.438 317.446C512.333 317.393 512.211 317.384 512.099 317.42Z" fill="white"/>
<path d="M443.198 337.888C443.498 338.084 443.799 338.279 444.1 338.482C448.125 341.129 451.928 344.099 455.473 347.363C455.751 347.611 456.029 347.866 456.299 348.122C464.754 356.075 471.66 365.529 476.664 376.004C478.652 380.174 480.319 384.489 481.652 388.912C483.493 395.02 485.003 401.79 488.646 406.786C489.02 407.312 489.427 407.814 489.863 408.289H522.789C522.864 408.251 522.939 408.221 523.014 408.184L524.329 408.244C524.276 408.011 524.216 407.771 524.163 407.538C524.133 407.402 524.096 407.267 524.066 407.132C524.043 407.042 524.021 406.952 524.006 406.869C523.998 406.839 523.99 406.809 523.983 406.786C523.968 406.704 523.945 406.629 523.93 406.553C523.6 405.209 523.259 403.864 522.909 402.519C522.909 402.511 522.909 402.511 522.901 402.504C520.204 392.263 516.629 382.157 511.633 372.916C511.483 372.638 511.333 372.352 511.167 372.074C508.893 367.921 506.282 363.961 503.362 360.233C501.757 358.197 500.049 356.244 498.246 354.38C493.579 349.575 488.184 345.533 482.261 342.404C470.452 336.168 456.78 333.779 444.159 337.588C443.837 337.686 443.521 337.783 443.198 337.888Z" fill="#F0F0F0"/>
<path d="M443.272 338.306C459.668 341.563 474.62 349.904 486.006 362.145C488.504 364.737 490.578 367.706 492.152 370.943C493.583 374.147 494.13 377.675 493.736 381.161C493.435 384.419 492.749 387.717 493.245 390.991C493.523 392.664 494.152 394.258 495.09 395.671C496.028 397.083 497.254 398.281 498.687 399.186C502.2 401.535 506.347 402.481 510.434 403.265C514.973 404.136 519.701 404.968 523.488 407.803C523.947 408.147 524.454 407.415 523.995 407.072C517.405 402.138 508.574 403.174 501.365 399.691C498.001 398.066 495.106 395.417 494.272 391.652C493.544 388.36 494.248 384.959 494.582 381.663C495.015 378.267 494.611 374.817 493.405 371.614C492.001 368.307 490.045 365.263 487.62 362.612C482.256 356.557 475.974 351.383 469.004 347.28C461.074 342.553 452.394 339.218 443.34 337.419C442.78 337.307 442.715 338.196 443.272 338.306Z" fill="white"/>
<path d="M482.572 357.988C484.366 355.798 485.324 353.042 485.274 350.212C485.223 347.381 484.169 344.661 482.299 342.536C481.919 342.108 481.235 342.678 481.615 343.107C483.361 345.083 484.343 347.617 484.384 350.252C484.425 352.888 483.523 355.452 481.84 357.481C481.475 357.922 482.209 358.426 482.572 357.988Z" fill="white"/>
<path d="M494.107 379.529C488.355 380.152 482.579 378.583 477.932 375.136C477.472 374.794 476.966 375.526 477.425 375.868C482.268 379.446 488.282 381.066 494.266 380.405C494.836 380.342 494.674 379.466 494.107 379.529Z" fill="white"/>
<path d="M460.922 343.724C460.405 344.716 459.649 345.564 458.723 346.191C457.796 346.818 456.729 347.206 455.616 347.319C455.045 347.375 455.208 348.25 455.775 348.195C457.004 348.064 458.182 347.635 459.207 346.944C460.232 346.253 461.072 345.321 461.654 344.231C461.717 344.133 461.741 344.014 461.72 343.899C461.699 343.784 461.635 343.681 461.542 343.612C461.444 343.545 461.325 343.519 461.209 343.54C461.093 343.561 460.99 343.627 460.922 343.724Z" fill="white"/>
<path d="M91.0482 0H363.884V89.5831H353.55V113.012L330.124 89.5831H91.0482V0Z" fill="#E4E4E4"/>
<path d="M356.681 80.7655H98.2508V8.34766H300.402C315.323 8.36448 329.628 14.3003 340.178 24.8529C350.729 35.4055 356.664 49.713 356.681 64.6366V80.7655Z" fill="white"/>
<path d="M272.836 128.79H0V218.373H10.3344V241.802L33.7601 218.373H272.836V128.79Z" fill="#E4E4E4"/>
<path d="M265.633 209.556H53.128C40.9522 209.542 29.2791 204.699 20.6695 196.087C12.0599 187.476 7.21695 175.801 7.20316 163.623V137.138H265.633V209.556Z" fill="white"/>
<path d="M246.994 159.126H30.3671V162.892H246.994V159.126Z" fill="#09244B"/>
<path d="M246.603 172.153H30.3671V175.919H246.603V172.153Z" fill="#E6E6E6"/>
<path d="M246.392 185.18H30.3671V188.946H246.392V185.18Z" fill="#E6E6E6"/>
<path d="M181.337 59.4628L167.614 45.7371C165.767 43.8902 164.708 41.3991 164.659 38.7874C164.611 36.1758 165.577 33.6471 167.354 31.7331C169.132 29.8192 171.582 28.669 174.189 28.5245C176.797 28.38 179.359 29.2524 181.337 30.9582C183.315 29.2526 185.877 28.3805 188.484 28.5251C191.092 28.6697 193.542 29.8199 195.319 31.7337C197.096 33.6475 198.062 36.176 198.014 38.7875C197.966 41.399 196.907 43.8901 195.061 45.7371L181.337 59.4628ZM174.748 30.0569C173.058 30.0558 171.405 30.5563 169.999 31.4951C168.593 32.4339 167.497 33.7688 166.85 35.3308C166.203 36.8927 166.034 38.6116 166.364 40.2698C166.694 41.9279 167.509 43.4509 168.705 44.6458L181.337 57.2803L193.969 44.6458C194.764 43.8522 195.394 42.9098 195.824 41.8725C196.254 40.8351 196.476 39.7232 196.476 38.6003C196.476 37.4773 196.255 36.3652 195.826 35.3277C195.396 34.2901 194.767 33.3474 193.973 32.5533C193.179 31.7593 192.236 31.1294 191.199 30.6998C190.162 30.2702 189.05 30.0493 187.927 30.0496C186.804 30.0499 185.692 30.2714 184.655 30.7016C183.618 31.1318 182.676 31.7621 181.882 32.5566L181.337 33.1022L180.791 32.5566C179.998 31.7624 179.056 31.1328 178.019 30.7038C176.982 30.2748 175.87 30.055 174.748 30.0569Z" fill="#09244B"/>
<path d="M229.175 37.0068C228.752 36.585 228.178 36.3484 227.581 36.3488C226.984 36.3493 226.411 36.5868 225.989 37.0092C225.566 37.4316 225.329 38.0043 225.328 38.6017C225.328 39.1992 225.564 39.7724 225.986 40.1955L229.175 43.3848L232.363 40.1958C232.573 39.9865 232.74 39.7379 232.853 39.4642C232.967 39.1905 233.026 38.897 233.026 38.6005C233.026 38.3041 232.968 38.0105 232.855 37.7366C232.742 37.4626 232.575 37.2137 232.366 37.0041C232.156 36.7945 231.908 36.6282 231.634 36.5149C231.36 36.4015 231.066 36.3433 230.77 36.3435C230.473 36.3437 230.18 36.4024 229.906 36.5162C229.633 36.6299 229.384 36.7968 229.175 37.0068Z" fill="#09244B"/>
<path d="M216.058 37.0068C215.635 36.5843 215.062 36.347 214.464 36.3472C213.866 36.3473 213.293 36.5849 212.87 37.0075C212.448 37.4302 212.21 38.0035 212.21 38.6013C212.21 39.1991 212.447 39.7725 212.869 40.1955L216.058 43.3848L219.246 40.1958C219.456 39.9865 219.623 39.7379 219.737 39.4642C219.85 39.1905 219.909 38.897 219.909 38.6005C219.91 38.3041 219.851 38.0105 219.738 37.7366C219.625 37.4626 219.459 37.2137 219.249 37.0041C219.04 36.7945 218.791 36.6282 218.517 36.5149C218.243 36.4015 217.95 36.3433 217.653 36.3435C217.357 36.3437 217.063 36.4024 216.79 36.5162C216.516 36.6299 216.267 36.7968 216.058 37.0068Z" fill="#09244B"/>
<path d="M222.91 60.9193C219.553 60.9193 216.271 59.9235 213.48 58.058C210.688 56.1925 208.513 53.541 207.228 50.4387C205.943 47.3365 205.607 43.9229 206.262 40.6295C206.917 37.3362 208.533 34.3111 210.907 31.9367C213.281 29.5624 216.306 27.9454 219.599 27.2903C222.891 26.6353 226.304 26.9715 229.406 28.2565C232.508 29.5415 235.159 31.7175 237.024 34.5095C238.889 37.3014 239.885 40.5838 239.885 43.9417C239.88 48.4429 238.09 52.7582 234.908 55.941C231.725 59.1238 227.411 60.9142 222.91 60.9193ZM222.91 28.5075C219.858 28.5075 216.875 29.4127 214.337 31.1087C211.799 32.8046 209.821 35.2151 208.653 38.0353C207.485 40.8555 207.18 43.9588 207.775 46.9527C208.371 49.9467 209.84 52.6968 211.999 54.8553C214.157 57.0138 216.906 58.4838 219.9 59.0793C222.893 59.6748 225.996 59.3692 228.816 58.201C231.635 57.0328 234.045 55.0546 235.741 52.5164C237.437 49.9783 238.342 46.9943 238.342 43.9417C238.342 41.9148 237.943 39.9079 237.167 38.0353C236.392 36.1627 235.255 34.4613 233.822 33.0281C232.389 31.5949 230.688 30.458 228.816 29.6824C226.943 28.9068 224.937 28.5075 222.91 28.5075Z" fill="#09244B"/>
<path d="M264.575 60.9193C261.218 60.9193 257.936 59.9235 255.145 58.058C252.353 56.1925 250.177 53.541 248.893 50.4387C247.608 47.3365 247.272 43.9229 247.927 40.6295C248.582 37.3362 250.198 34.3111 252.572 31.9367C254.946 29.5624 257.971 27.9454 261.264 27.2903C264.556 26.6353 267.969 26.9715 271.071 28.2565C274.173 29.5415 276.824 31.7175 278.689 34.5095C280.554 37.3014 281.55 40.5838 281.55 43.9417C281.545 48.4429 279.755 52.7582 276.572 55.941C273.39 59.1238 269.076 60.9142 264.575 60.9193ZM264.575 28.5075C261.523 28.5075 258.54 29.4127 256.002 31.1087C253.464 32.8046 251.486 35.2151 250.318 38.0353C249.15 40.8555 248.845 43.9588 249.44 46.9527C250.036 49.9467 251.505 52.6968 253.663 54.8553C255.822 57.0138 258.571 58.4838 261.565 59.0793C264.558 59.6748 267.661 59.3692 270.481 58.201C273.3 57.0328 275.71 55.0546 277.406 52.5164C279.102 49.9783 280.007 46.9943 280.007 43.9417C280.007 41.9148 279.608 39.9079 278.832 38.0353C278.057 36.1627 276.92 34.4613 275.487 33.0281C274.054 31.5949 272.353 30.458 270.481 29.6824C268.608 28.9068 266.602 28.5075 264.575 28.5075Z" fill="#09244B"/>
<path d="M271.519 42.3982C273.65 42.3982 275.377 40.6707 275.377 38.5397C275.377 36.4087 273.65 34.6812 271.519 34.6812C269.389 34.6812 267.662 36.4087 267.662 38.5397C267.662 40.6707 269.389 42.3982 271.519 42.3982Z" fill="#09244B"/>
<path d="M258.403 42.3982C260.533 42.3982 262.26 40.6707 262.26 38.5397C262.26 36.4087 260.533 34.6812 258.403 34.6812C256.272 34.6812 254.545 36.4087 254.545 38.5397C254.545 40.6707 256.272 42.3982 258.403 42.3982Z" fill="#09244B"/>
<path d="M259.766 47.0283C258.192 57.9207 270.684 60.1301 269.434 47.0279C269.508 47.019 260.269 47.0351 259.766 47.0283Z" fill="#09244B"/>
<path d="M216.965 49.2891C220.494 54.033 226.594 54.459 229.854 49.2891H216.965Z" fill="#09244B"/>
<path d="M438.4 400.073H429.19L424.809 364.543H438.401L438.4 400.073Z" fill="#9E616A"/>
<path d="M440.748 409.001L411.052 409V408.625C411.052 405.559 412.27 402.618 414.438 400.451C416.606 398.283 419.545 397.065 422.611 397.064H422.612L440.749 397.065L440.748 409.001Z" fill="#2F2E41"/>
<path d="M369.005 399.77L360.135 397.291L365.474 361.893L378.565 365.551L369.005 399.77Z" fill="#9E616A"/>
<path d="M368.865 409.002L340.264 401.009L340.366 400.647C341.191 397.694 343.154 395.19 345.825 393.685C348.496 392.181 351.655 391.799 354.608 392.624L354.609 392.624L372.077 397.506L368.865 409.002Z" fill="#2F2E41"/>
<path d="M416.612 102.448C427.739 102.448 436.76 93.4259 436.76 82.2964C436.76 71.167 427.739 62.1448 416.612 62.1448C405.484 62.1448 396.464 71.167 396.464 82.2964C396.464 93.4259 405.484 102.448 416.612 102.448Z" fill="#9E616A"/>
<path d="M426.148 183.163L427.745 194.099C427.745 194.099 447.893 234.157 426.025 253.817C426.025 253.817 393.346 352.384 384.009 365.654L376.202 381.992L361.178 379.738L370.495 323.631L386.22 243.496L388.555 180.952C388.555 180.952 422.954 178.494 426.148 183.163Z" fill="#2F2E41"/>
<path d="M422.34 251.345L433.397 314.033C433.397 314.033 439.294 342.785 439.785 353.844C440.277 364.903 442.242 379.157 442.242 379.157L422.34 382.351L402.683 298.038L422.34 251.345Z" fill="#2F2E41"/>
<path d="M438.553 128.79L437.122 165.28L429.564 182.001L426.763 188.201L386.221 187.71L390.398 159.448C384.501 144.212 398.506 138.068 398.506 138.068L410.3 125.498L409.256 109.255L427.008 105.875C436.247 104.115 431.792 117.52 431.792 117.52C444.077 116.291 438.553 128.79 438.553 128.79Z" fill="#09244B"/>
<path d="M357.31 163.352C357.451 163.128 357.082 162.641 356.486 162.263C355.89 161.885 355.291 161.76 355.15 161.984C355.008 162.208 355.377 162.695 355.973 163.073C356.57 163.451 357.168 163.575 357.31 163.352Z" fill="#3F3D56"/>
<path d="M355.216 159.189C355.373 158.941 355.577 158.726 355.818 158.557C356.058 158.388 356.329 158.268 356.616 158.203C356.902 158.139 357.199 158.132 357.488 158.182C357.777 158.232 358.054 158.339 358.302 158.496L386.649 176.45C386.897 176.607 387.112 176.812 387.281 177.052C387.451 177.292 387.571 177.563 387.635 177.85C387.699 178.136 387.707 178.433 387.657 178.722C387.606 179.012 387.5 179.289 387.342 179.537L355.216 159.189Z" fill="#09244B"/>
<path d="M352.536 160.139L353.427 158.73C353.644 158.388 353.988 158.146 354.384 158.057C354.779 157.968 355.194 158.04 355.537 158.257L387.812 178.699C388.218 178.956 388.505 179.363 388.61 179.832C388.715 180.3 388.63 180.791 388.373 181.197L387.632 182.368L352.536 160.139Z" fill="#3F3D56"/>
<path d="M357.341 160.913L356.999 161.453L359.159 162.821L359.501 162.281L357.341 160.913Z" fill="#D0CDE1"/>
<path d="M360.31 162.793L359.969 163.333L362.128 164.701L362.47 164.161L360.31 162.793Z" fill="#D0CDE1"/>
<path d="M382.875 167.299C383.221 167.528 383.549 167.785 383.856 168.066L420.046 159.219L422.594 150.533L436.203 152.667L433.185 168.482C432.941 169.76 432.29 170.924 431.328 171.799C430.367 172.675 429.147 173.215 427.852 173.339L385.659 177.361C384.958 178.801 383.835 179.993 382.44 180.779C381.044 181.565 379.443 181.908 377.848 181.761C376.254 181.614 374.742 180.986 373.513 179.959C372.284 178.932 371.397 177.555 370.97 176.011C370.543 174.468 370.596 172.831 371.122 171.318C371.647 169.805 372.621 168.488 373.914 167.542C375.206 166.596 376.755 166.067 378.356 166.023C379.957 165.98 381.533 166.425 382.875 167.299Z" fill="#9E616A"/>
<path d="M418.949 157.423C418.695 157.009 418.533 156.545 418.474 156.063C418.416 155.58 418.462 155.091 418.61 154.628L423.768 124.187C424.168 121.733 425.523 119.538 427.539 118.082C429.554 116.627 432.064 116.03 434.518 116.423C436.973 116.816 439.171 118.166 440.632 120.178C442.092 122.19 442.695 124.699 442.309 127.154L442.061 158.453C442.054 158.938 441.942 159.417 441.734 159.856C441.525 160.294 441.224 160.683 440.852 160.995C440.479 161.307 440.044 161.535 439.576 161.664C439.107 161.792 438.617 161.818 438.137 161.74L421.287 158.992C420.807 158.914 420.35 158.734 419.946 158.463C419.543 158.192 419.203 157.837 418.949 157.423Z" fill="#09244B"/>
<path d="M426.158 57.4126C422.308 57.4076 418.528 58.4462 415.221 60.418H413.763C408.384 60.418 403.225 62.5553 399.421 66.3597C395.617 70.1641 393.48 75.3239 393.48 80.7042H404.748V104.747H447.567V78.8258C447.567 73.1467 445.312 67.7002 441.297 63.6844C437.282 59.6687 431.836 57.4126 426.158 57.4126Z" fill="#2F2E41"/>
<path d="M550.105 410H238.132C238.015 410 237.898 409.977 237.789 409.933C237.68 409.888 237.582 409.822 237.498 409.739C237.415 409.656 237.349 409.557 237.304 409.448C237.259 409.34 237.235 409.223 237.235 409.105C237.235 408.988 237.259 408.871 237.304 408.762C237.349 408.654 237.415 408.555 237.498 408.472C237.582 408.389 237.68 408.323 237.789 408.278C237.898 408.233 238.015 408.21 238.132 408.211H550.105C550.223 408.21 550.34 408.233 550.449 408.278C550.557 408.323 550.656 408.389 550.74 408.472C550.823 408.555 550.889 408.654 550.934 408.762C550.979 408.871 551.003 408.988 551.003 409.105C551.003 409.223 550.979 409.34 550.934 409.448C550.889 409.557 550.823 409.656 550.74 409.739C550.656 409.822 550.557 409.888 550.449 409.933C550.34 409.977 550.223 410 550.105 410Z" fill="#CACACA"/>
</g>
<defs>
<clipPath id="clip0_32_355">
<rect width="551" height="410" fill="white"/>
</clipPath>
</defs>
</svg>
